<mxfile host="app.diagrams.net" agent="Mozilla/5.0 (Macintosh; Intel Mac OS X 10_15_7) AppleWebKit/537.36 (KHTML, like Gecko) Chrome/139.0.0.0 Safari/537.36" version="28.1.0">
  <diagram name="第 1 页" id="bHeD-zbfW_tD5q5CruoQ">
    <mxGraphModel dx="23" dy="1317" grid="1" gridSize="10" guides="1" tooltips="1" connect="1" arrows="1" fold="1" page="0" pageScale="1" pageWidth="827" pageHeight="1169" math="0" shadow="0">
      <root>
        <mxCell id="0" />
        <mxCell id="1" parent="0" />
        <mxCell id="lm4zTS06JlCJqqm8C1mE-1" value="" style="edgeStyle=orthogonalEdgeStyle;rounded=0;orthogonalLoop=1;jettySize=auto;html=1;entryX=0.5;entryY=0;entryDx=0;entryDy=0;" parent="1" source="lm4zTS06JlCJqqm8C1mE-3" target="lm4zTS06JlCJqqm8C1mE-5" edge="1">
          <mxGeometry relative="1" as="geometry" />
        </mxCell>
        <mxCell id="lm4zTS06JlCJqqm8C1mE-2" value="调用message.c中的方法&lt;div&gt;序列化&lt;/div&gt;" style="edgeLabel;html=1;align=center;verticalAlign=middle;resizable=0;points=[];" parent="lm4zTS06JlCJqqm8C1mE-1" vertex="1" connectable="0">
          <mxGeometry x="-0.2424" relative="1" as="geometry">
            <mxPoint y="3" as="offset" />
          </mxGeometry>
        </mxCell>
        <mxCell id="lm4zTS06JlCJqqm8C1mE-3" value="结构体对象&lt;div&gt;Student / MyClass&lt;/div&gt;" style="rounded=1;whiteSpace=wrap;html=1;fillColor=#ffe6cc;strokeColor=#d79b00;" parent="1" vertex="1">
          <mxGeometry x="1110" y="410" width="120" height="50" as="geometry" />
        </mxCell>
        <mxCell id="lm4zTS06JlCJqqm8C1mE-4" value="" style="edgeStyle=orthogonalEdgeStyle;rounded=0;orthogonalLoop=1;jettySize=auto;html=1;entryX=0.5;entryY=0;entryDx=0;entryDy=0;" parent="1" source="lm4zTS06JlCJqqm8C1mE-5" target="lm4zTS06JlCJqqm8C1mE-7" edge="1">
          <mxGeometry relative="1" as="geometry" />
        </mxCell>
        <mxCell id="lm4zTS06JlCJqqm8C1mE-5" value="二进制字节流" style="rounded=1;whiteSpace=wrap;html=1;fillColor=#fff2cc;strokeColor=#d6b656;" parent="1" vertex="1">
          <mxGeometry x="1110" y="505" width="120" height="50" as="geometry" />
        </mxCell>
        <mxCell id="lm4zTS06JlCJqqm8C1mE-6" value="" style="edgeStyle=orthogonalEdgeStyle;rounded=0;orthogonalLoop=1;jettySize=auto;html=1;" parent="1" source="lm4zTS06JlCJqqm8C1mE-7" target="lm4zTS06JlCJqqm8C1mE-8" edge="1">
          <mxGeometry relative="1" as="geometry" />
        </mxCell>
        <mxCell id="lm4zTS06JlCJqqm8C1mE-7" value="传输通道&lt;div&gt;bufferevent / evbuffer&lt;/div&gt;" style="rounded=1;whiteSpace=wrap;html=1;fillColor=#f8cecc;strokeColor=#b85450;" parent="1" vertex="1">
          <mxGeometry x="1110" y="580" width="120" height="50" as="geometry" />
        </mxCell>
        <mxCell id="lm4zTS06JlCJqqm8C1mE-8" value="socket缓冲区" style="rounded=1;whiteSpace=wrap;html=1;fillColor=#e1d5e7;strokeColor=#9673a6;" parent="1" vertex="1">
          <mxGeometry x="1110" y="650" width="120" height="50" as="geometry" />
        </mxCell>
        <mxCell id="lm4zTS06JlCJqqm8C1mE-9" value="" style="edgeStyle=orthogonalEdgeStyle;rounded=0;orthogonalLoop=1;jettySize=auto;html=1;" parent="1" source="lm4zTS06JlCJqqm8C1mE-10" target="lm4zTS06JlCJqqm8C1mE-12" edge="1">
          <mxGeometry relative="1" as="geometry" />
        </mxCell>
        <mxCell id="lm4zTS06JlCJqqm8C1mE-10" value="socket缓冲区" style="rounded=1;whiteSpace=wrap;html=1;fillColor=#e1d5e7;strokeColor=#9673a6;" parent="1" vertex="1">
          <mxGeometry x="1290" y="410" width="120" height="50" as="geometry" />
        </mxCell>
        <mxCell id="lm4zTS06JlCJqqm8C1mE-11" value="" style="edgeStyle=orthogonalEdgeStyle;rounded=0;orthogonalLoop=1;jettySize=auto;html=1;" parent="1" source="lm4zTS06JlCJqqm8C1mE-12" target="lm4zTS06JlCJqqm8C1mE-14" edge="1">
          <mxGeometry relative="1" as="geometry" />
        </mxCell>
        <mxCell id="lm4zTS06JlCJqqm8C1mE-12" value="&lt;div&gt;bufferevent&lt;/div&gt;&lt;div&gt;回调触发&lt;/div&gt;" style="rounded=1;whiteSpace=wrap;html=1;fillColor=#f8cecc;strokeColor=#b85450;" parent="1" vertex="1">
          <mxGeometry x="1290" y="480" width="120" height="50" as="geometry" />
        </mxCell>
        <mxCell id="lm4zTS06JlCJqqm8C1mE-13" value="调用message.c中的方法&lt;div&gt;反&lt;span style=&quot;background-color: light-dark(#ffffff, var(--ge-dark-color, #121212)); color: light-dark(rgb(0, 0, 0), rgb(255, 255, 255));&quot;&gt;序列化&lt;/span&gt;&lt;/div&gt;" style="edgeStyle=orthogonalEdgeStyle;rounded=0;orthogonalLoop=1;jettySize=auto;html=1;exitX=0.5;exitY=1;exitDx=0;exitDy=0;entryX=0.5;entryY=0;entryDx=0;entryDy=0;" parent="1" source="lm4zTS06JlCJqqm8C1mE-14" target="lm4zTS06JlCJqqm8C1mE-15" edge="1">
          <mxGeometry relative="1" as="geometry">
            <mxPoint x="1350" y="649.0000000000001" as="sourcePoint" />
            <mxPoint x="1350" y="699" as="targetPoint" />
          </mxGeometry>
        </mxCell>
        <mxCell id="lm4zTS06JlCJqqm8C1mE-14" value="二进制字节流&lt;div&gt;接收缓冲区&lt;/div&gt;" style="rounded=1;whiteSpace=wrap;html=1;fillColor=#fff2cc;strokeColor=#d6b656;" parent="1" vertex="1">
          <mxGeometry x="1290" y="550" width="120" height="50" as="geometry" />
        </mxCell>
        <mxCell id="lm4zTS06JlCJqqm8C1mE-15" value="结构体对象&lt;div&gt;Student / MyClass&lt;/div&gt;" style="rounded=1;whiteSpace=wrap;html=1;fillColor=#ffe6cc;strokeColor=#d79b00;" parent="1" vertex="1">
          <mxGeometry x="1290" y="650" width="120" height="50" as="geometry" />
        </mxCell>
        <mxCell id="4ESzDmlQAR68TbJbTXDd-2" value="" style="rounded=0;whiteSpace=wrap;html=1;fillColor=#d5e8d4;strokeColor=#82b366;" parent="1" vertex="1">
          <mxGeometry x="1654" y="390" width="120" height="60" as="geometry" />
        </mxCell>
        <mxCell id="4ESzDmlQAR68TbJbTXDd-3" value="" style="rounded=0;whiteSpace=wrap;html=1;fillColor=#ffe6cc;strokeColor=#d79b00;" parent="1" vertex="1">
          <mxGeometry x="1774" y="390" width="120" height="60" as="geometry" />
        </mxCell>
        <mxCell id="4ESzDmlQAR68TbJbTXDd-4" value="" style="rounded=0;whiteSpace=wrap;html=1;fillColor=#f8cecc;strokeColor=#b85450;" parent="1" vertex="1">
          <mxGeometry x="1894" y="390" width="120" height="60" as="geometry" />
        </mxCell>
        <mxCell id="4ESzDmlQAR68TbJbTXDd-5" value="" style="rounded=0;whiteSpace=wrap;html=1;fillColor=#e1d5e7;strokeColor=#9673a6;" parent="1" vertex="1">
          <mxGeometry x="2014" y="390" width="120" height="60" as="geometry" />
        </mxCell>
        <mxCell id="4ESzDmlQAR68TbJbTXDd-6" value="&lt;div&gt;bench.c&lt;/div&gt;&lt;div&gt;bench_cascade.c&lt;/div&gt;&lt;div&gt;bench_http.c&lt;/div&gt;&lt;div&gt;bench_httpclient.c&lt;/div&gt;" style="rounded=0;whiteSpace=wrap;html=1;align=left;" parent="1" vertex="1">
          <mxGeometry x="1654" y="450" width="120" height="260" as="geometry" />
        </mxCell>
        <mxCell id="4ESzDmlQAR68TbJbTXDd-7" value="" style="rounded=0;whiteSpace=wrap;html=1;align=left;" parent="1" vertex="1">
          <mxGeometry x="1774" y="450" width="120" height="260" as="geometry" />
        </mxCell>
        <mxCell id="4ESzDmlQAR68TbJbTXDd-8" value="" style="rounded=0;whiteSpace=wrap;html=1;align=left;" parent="1" vertex="1">
          <mxGeometry x="1894" y="450" width="120" height="260" as="geometry" />
        </mxCell>
        <mxCell id="4ESzDmlQAR68TbJbTXDd-9" value="" style="rounded=0;whiteSpace=wrap;html=1;align=left;" parent="1" vertex="1">
          <mxGeometry x="2014" y="450" width="120" height="260" as="geometry" />
        </mxCell>
        <mxCell id="4ESzDmlQAR68TbJbTXDd-14" value="check-dumpevents.py" style="rounded=0;whiteSpace=wrap;html=1;fillColor=#d5e8d4;strokeColor=#82b366;" parent="1" vertex="1">
          <mxGeometry x="1810" y="820" width="140" height="50" as="geometry" />
        </mxCell>
        <mxCell id="4ESzDmlQAR68TbJbTXDd-16" value="&lt;div&gt;include.am&lt;/div&gt;&lt;div&gt;Makefile.nmake&lt;/div&gt;" style="rounded=0;whiteSpace=wrap;html=1;fillColor=#d5e8d4;strokeColor=#82b366;" parent="1" vertex="1">
          <mxGeometry x="1810" y="870" width="140" height="50" as="geometry" />
        </mxCell>
        <mxCell id="4ESzDmlQAR68TbJbTXDd-17" value="print-winsock-errors.c" style="rounded=0;whiteSpace=wrap;html=1;fillColor=#d5e8d4;strokeColor=#82b366;" parent="1" vertex="1">
          <mxGeometry x="1810" y="920" width="140" height="50" as="geometry" />
        </mxCell>
        <mxCell id="4ESzDmlQAR68TbJbTXDd-18" value="rpcgen_wrapper.sh" style="rounded=0;whiteSpace=wrap;html=1;fillColor=#d5e8d4;strokeColor=#82b366;" parent="1" vertex="1">
          <mxGeometry x="1810" y="970" width="140" height="80" as="geometry" />
        </mxCell>
        <mxCell id="4ESzDmlQAR68TbJbTXDd-19" value="&amp;nbsp;这个 Python 脚本，用来检查 test-dumpevents.c 输出的结果，&amp;nbsp; &amp;nbsp;后者是用于测试事件转储功能的。" style="rounded=0;whiteSpace=wrap;html=1;align=left;fillColor=#d5e8d4;strokeColor=#82b366;" parent="1" vertex="1">
          <mxGeometry x="1950" y="820" width="340" height="50" as="geometry" />
        </mxCell>
        <mxCell id="4ESzDmlQAR68TbJbTXDd-20" value="&amp;nbsp;构建测试相关的 Makefile 配置文件（autotools / nmake 用）。" style="rounded=0;whiteSpace=wrap;html=1;align=left;fillColor=#d5e8d4;strokeColor=#82b366;" parent="1" vertex="1">
          <mxGeometry x="1950" y="870" width="340" height="50" as="geometry" />
        </mxCell>
        <mxCell id="4ESzDmlQAR68TbJbTXDd-21" value="&amp;nbsp;用于打印 Windows 上 Winsock 错误码。" style="rounded=0;whiteSpace=wrap;html=1;align=left;fillColor=#d5e8d4;strokeColor=#82b366;" parent="1" vertex="1">
          <mxGeometry x="1950" y="920" width="340" height="50" as="geometry" />
        </mxCell>
        <mxCell id="4ESzDmlQAR68TbJbTXDd-22" value="&amp;nbsp;当通过 event_rpcgen.py +&amp;nbsp;regress.rpc 生成&amp;nbsp;regress.gen.h/.c 失败时， Makefile 默认会在 build 目录生成空的 regress.gen.c/h 文件，这会导致 make distclean 报错，为了避免这种情况，Libevent 写了这个 包装脚本。" style="rounded=0;whiteSpace=wrap;html=1;align=left;fillColor=#d5e8d4;strokeColor=#82b366;" parent="1" vertex="1">
          <mxGeometry x="1950" y="970" width="340" height="80" as="geometry" />
        </mxCell>
        <mxCell id="4ESzDmlQAR68TbJbTXDd-23" value="其他文件" style="rounded=0;whiteSpace=wrap;html=1;fillColor=#d5e8d4;strokeColor=#82b366;gradientColor=#97d077;" parent="1" vertex="1">
          <mxGeometry x="1810" y="790" width="140" height="30" as="geometry" />
        </mxCell>
        <mxCell id="4ESzDmlQAR68TbJbTXDd-24" value="说明" style="rounded=0;whiteSpace=wrap;html=1;fillColor=#d5e8d4;strokeColor=#82b366;align=center;gradientColor=#97d077;" parent="1" vertex="1">
          <mxGeometry x="1950" y="790" width="340" height="30" as="geometry" />
        </mxCell>
        <mxCell id="4ESzDmlQAR68TbJbTXDd-25" value="&lt;font style=&quot;font-size: 84px;&quot;&gt;&lt;b&gt;图解&lt;/b&gt;&lt;/font&gt;&lt;div&gt;&lt;font style=&quot;font-size: 84px;&quot;&gt;&lt;b&gt;libevent&lt;/b&gt;&lt;/font&gt;&lt;/div&gt;&lt;div&gt;&lt;font style=&quot;font-size: 84px;&quot;&gt;&lt;b&gt;&lt;br&gt;&lt;/b&gt;&lt;/font&gt;&lt;/div&gt;&lt;div&gt;&lt;b&gt;&lt;br&gt;&lt;/b&gt;&lt;/div&gt;&lt;div&gt;&lt;font&gt;&lt;b&gt;深度C++&lt;/b&gt;&lt;/font&gt;&lt;/div&gt;" style="rounded=1;whiteSpace=wrap;html=1;fillColor=#fff2cc;gradientColor=#ffd966;strokeColor=#d6b656;fontSize=48;fontStyle=2" parent="1" vertex="1">
          <mxGeometry x="1150" y="-760" width="570" height="740" as="geometry" />
        </mxCell>
        <mxCell id="4ESzDmlQAR68TbJbTXDd-26" value="&lt;span style=&quot;font-size: 84px;&quot;&gt;&lt;b&gt;拆解&lt;/b&gt;&lt;/span&gt;&lt;br&gt;&lt;div&gt;&lt;font style=&quot;font-size: 84px;&quot;&gt;&lt;b&gt;libevent&lt;/b&gt;&lt;/font&gt;&lt;/div&gt;&lt;div&gt;&lt;font style=&quot;font-size: 84px;&quot;&gt;&lt;b&gt;源码包&lt;/b&gt;&lt;/font&gt;&lt;/div&gt;" style="rounded=1;whiteSpace=wrap;html=1;fillColor=#d5e8d4;gradientColor=#97d077;strokeColor=#82b366;fontSize=48;fontStyle=2" parent="1" vertex="1">
          <mxGeometry x="2450" y="-760" width="1250" height="740" as="geometry" />
        </mxCell>
        <mxCell id="4ESzDmlQAR68TbJbTXDd-28" value="" style="edgeStyle=orthogonalEdgeStyle;rounded=0;orthogonalLoop=1;jettySize=auto;html=1;" parent="1" source="4ESzDmlQAR68TbJbTXDd-27" target="lm4zTS06JlCJqqm8C1mE-3" edge="1">
          <mxGeometry relative="1" as="geometry" />
        </mxCell>
        <mxCell id="4ESzDmlQAR68TbJbTXDd-27" value="发送流程" style="ellipse;whiteSpace=wrap;html=1;fillColor=#fff2cc;gradientColor=#ffd966;strokeColor=#d6b656;" parent="1" vertex="1">
          <mxGeometry x="1110" y="330" width="120" height="50" as="geometry" />
        </mxCell>
        <mxCell id="4ESzDmlQAR68TbJbTXDd-30" value="" style="edgeStyle=orthogonalEdgeStyle;rounded=0;orthogonalLoop=1;jettySize=auto;html=1;" parent="1" source="4ESzDmlQAR68TbJbTXDd-29" target="lm4zTS06JlCJqqm8C1mE-10" edge="1">
          <mxGeometry relative="1" as="geometry" />
        </mxCell>
        <mxCell id="4ESzDmlQAR68TbJbTXDd-29" value="接收流程" style="ellipse;whiteSpace=wrap;html=1;fillColor=#f8cecc;gradientColor=#ea6b66;strokeColor=#b85450;" parent="1" vertex="1">
          <mxGeometry x="1290" y="330" width="120" height="50" as="geometry" />
        </mxCell>
        <mxCell id="m3YWzzSOtX_iTLKpykOy-1" value="event.c" style="rounded=0;whiteSpace=wrap;html=1;fillColor=#d5e8d4;strokeColor=#82b366;" vertex="1" parent="1">
          <mxGeometry x="2780" y="850" width="140" height="40" as="geometry" />
        </mxCell>
        <mxCell id="m3YWzzSOtX_iTLKpykOy-2" value="event_iocp.c" style="rounded=0;whiteSpace=wrap;html=1;fillColor=#d5e8d4;strokeColor=#82b366;" vertex="1" parent="1">
          <mxGeometry x="2780" y="890" width="140" height="40" as="geometry" />
        </mxCell>
        <mxCell id="m3YWzzSOtX_iTLKpykOy-3" value="evmap.c" style="rounded=0;whiteSpace=wrap;html=1;fillColor=#d5e8d4;strokeColor=#82b366;" vertex="1" parent="1">
          <mxGeometry x="2780" y="930" width="140" height="40" as="geometry" />
        </mxCell>
        <mxCell id="m3YWzzSOtX_iTLKpykOy-5" value="&amp;nbsp;事件循环核心实现，对 event、event_base 的管理等" style="rounded=0;whiteSpace=wrap;html=1;align=left;fillColor=#d5e8d4;strokeColor=#82b366;" vertex="1" parent="1">
          <mxGeometry x="2920" y="850" width="340" height="40" as="geometry" />
        </mxCell>
        <mxCell id="m3YWzzSOtX_iTLKpykOy-6" value="&amp;nbsp;Windows IOCP 事件支持" style="rounded=0;whiteSpace=wrap;html=1;align=left;fillColor=#d5e8d4;strokeColor=#82b366;" vertex="1" parent="1">
          <mxGeometry x="2920" y="890" width="340" height="40" as="geometry" />
        </mxCell>
        <mxCell id="m3YWzzSOtX_iTLKpykOy-7" value="&amp;nbsp;文件描述符到事件的映射管理" style="rounded=0;whiteSpace=wrap;html=1;align=left;fillColor=#d5e8d4;strokeColor=#82b366;" vertex="1" parent="1">
          <mxGeometry x="2920" y="930" width="340" height="40" as="geometry" />
        </mxCell>
        <mxCell id="m3YWzzSOtX_iTLKpykOy-9" value="文件名" style="rounded=0;whiteSpace=wrap;html=1;fillColor=#d5e8d4;strokeColor=#82b366;gradientColor=#97d077;fontStyle=1" vertex="1" parent="1">
          <mxGeometry x="2780" y="820" width="140" height="30" as="geometry" />
        </mxCell>
        <mxCell id="m3YWzzSOtX_iTLKpykOy-10" value="说明" style="rounded=0;whiteSpace=wrap;html=1;fillColor=#d5e8d4;strokeColor=#82b366;align=center;gradientColor=#97d077;fontStyle=1" vertex="1" parent="1">
          <mxGeometry x="2920" y="820" width="340" height="30" as="geometry" />
        </mxCell>
        <mxCell id="m3YWzzSOtX_iTLKpykOy-11" value="1" style="rounded=0;whiteSpace=wrap;html=1;fillColor=#d5e8d4;strokeColor=#82b366;" vertex="1" parent="1">
          <mxGeometry x="2730" y="850" width="50" height="40" as="geometry" />
        </mxCell>
        <mxCell id="m3YWzzSOtX_iTLKpykOy-12" value="2" style="rounded=0;whiteSpace=wrap;html=1;fillColor=#d5e8d4;strokeColor=#82b366;" vertex="1" parent="1">
          <mxGeometry x="2730" y="890" width="50" height="40" as="geometry" />
        </mxCell>
        <mxCell id="m3YWzzSOtX_iTLKpykOy-13" value="3" style="rounded=0;whiteSpace=wrap;html=1;fillColor=#d5e8d4;strokeColor=#82b366;" vertex="1" parent="1">
          <mxGeometry x="2730" y="930" width="50" height="40" as="geometry" />
        </mxCell>
        <mxCell id="m3YWzzSOtX_iTLKpykOy-15" value="序号" style="rounded=0;whiteSpace=wrap;html=1;fillColor=#d5e8d4;strokeColor=#82b366;gradientColor=#97d077;fontStyle=1" vertex="1" parent="1">
          <mxGeometry x="2730" y="820" width="50" height="30" as="geometry" />
        </mxCell>
        <mxCell id="m3YWzzSOtX_iTLKpykOy-16" value="select.c" style="rounded=0;whiteSpace=wrap;html=1;fillColor=#d5e8d4;strokeColor=#82b366;" vertex="1" parent="1">
          <mxGeometry x="3420" y="1160" width="140" height="40" as="geometry" />
        </mxCell>
        <mxCell id="m3YWzzSOtX_iTLKpykOy-20" value="&amp;nbsp;select 后端" style="rounded=0;whiteSpace=wrap;html=1;align=left;fillColor=#d5e8d4;strokeColor=#82b366;" vertex="1" parent="1">
          <mxGeometry x="3700" y="1160" width="220" height="40" as="geometry" />
        </mxCell>
        <mxCell id="m3YWzzSOtX_iTLKpykOy-24" value="文件名" style="rounded=0;whiteSpace=wrap;html=1;fillColor=#d5e8d4;strokeColor=#82b366;gradientColor=#97d077;fontStyle=1" vertex="1" parent="1">
          <mxGeometry x="3420" y="1130" width="140" height="30" as="geometry" />
        </mxCell>
        <mxCell id="m3YWzzSOtX_iTLKpykOy-25" value="说明" style="rounded=0;whiteSpace=wrap;html=1;fillColor=#d5e8d4;strokeColor=#82b366;align=center;gradientColor=#97d077;fontStyle=1" vertex="1" parent="1">
          <mxGeometry x="3700" y="1130" width="220" height="30" as="geometry" />
        </mxCell>
        <mxCell id="m3YWzzSOtX_iTLKpykOy-26" value="1" style="rounded=0;whiteSpace=wrap;html=1;fillColor=#d5e8d4;strokeColor=#82b366;" vertex="1" parent="1">
          <mxGeometry x="3370" y="1160" width="50" height="40" as="geometry" />
        </mxCell>
        <mxCell id="m3YWzzSOtX_iTLKpykOy-30" value="序号" style="rounded=0;whiteSpace=wrap;html=1;fillColor=#d5e8d4;strokeColor=#82b366;gradientColor=#97d077;fontStyle=1" vertex="1" parent="1">
          <mxGeometry x="3370" y="1130" width="50" height="30" as="geometry" />
        </mxCell>
        <mxCell id="m3YWzzSOtX_iTLKpykOy-31" value="buffer.c" style="rounded=0;whiteSpace=wrap;html=1;fillColor=#d5e8d4;strokeColor=#82b366;" vertex="1" parent="1">
          <mxGeometry x="3640" y="1590" width="140" height="30" as="geometry" />
        </mxCell>
        <mxCell id="m3YWzzSOtX_iTLKpykOy-32" value="" style="rounded=0;whiteSpace=wrap;html=1;fillColor=#d5e8d4;strokeColor=#82b366;" vertex="1" parent="1">
          <mxGeometry x="3640" y="1620" width="140" height="30" as="geometry" />
        </mxCell>
        <mxCell id="m3YWzzSOtX_iTLKpykOy-33" value="" style="rounded=0;whiteSpace=wrap;html=1;fillColor=#d5e8d4;strokeColor=#82b366;" vertex="1" parent="1">
          <mxGeometry x="3640" y="1650" width="140" height="30" as="geometry" />
        </mxCell>
        <mxCell id="m3YWzzSOtX_iTLKpykOy-34" value="" style="rounded=0;whiteSpace=wrap;html=1;fillColor=#d5e8d4;strokeColor=#82b366;" vertex="1" parent="1">
          <mxGeometry x="3640" y="1680" width="140" height="30" as="geometry" />
        </mxCell>
        <mxCell id="m3YWzzSOtX_iTLKpykOy-35" value="" style="rounded=0;whiteSpace=wrap;html=1;align=left;fillColor=#d5e8d4;strokeColor=#82b366;" vertex="1" parent="1">
          <mxGeometry x="3780" y="1590" width="340" height="30" as="geometry" />
        </mxCell>
        <mxCell id="m3YWzzSOtX_iTLKpykOy-36" value="" style="rounded=0;whiteSpace=wrap;html=1;align=left;fillColor=#d5e8d4;strokeColor=#82b366;" vertex="1" parent="1">
          <mxGeometry x="3780" y="1620" width="340" height="30" as="geometry" />
        </mxCell>
        <mxCell id="m3YWzzSOtX_iTLKpykOy-37" value="" style="rounded=0;whiteSpace=wrap;html=1;align=left;fillColor=#d5e8d4;strokeColor=#82b366;" vertex="1" parent="1">
          <mxGeometry x="3780" y="1650" width="340" height="30" as="geometry" />
        </mxCell>
        <mxCell id="m3YWzzSOtX_iTLKpykOy-38" value="" style="rounded=0;whiteSpace=wrap;html=1;align=left;fillColor=#d5e8d4;strokeColor=#82b366;" vertex="1" parent="1">
          <mxGeometry x="3780" y="1680" width="340" height="30" as="geometry" />
        </mxCell>
        <mxCell id="m3YWzzSOtX_iTLKpykOy-39" value="文件名" style="rounded=0;whiteSpace=wrap;html=1;fillColor=#d5e8d4;strokeColor=#82b366;gradientColor=#97d077;fontStyle=1" vertex="1" parent="1">
          <mxGeometry x="3640" y="1560" width="140" height="30" as="geometry" />
        </mxCell>
        <mxCell id="m3YWzzSOtX_iTLKpykOy-40" value="说明" style="rounded=0;whiteSpace=wrap;html=1;fillColor=#d5e8d4;strokeColor=#82b366;align=center;gradientColor=#97d077;fontStyle=1" vertex="1" parent="1">
          <mxGeometry x="3780" y="1560" width="340" height="30" as="geometry" />
        </mxCell>
        <mxCell id="m3YWzzSOtX_iTLKpykOy-41" value="1" style="rounded=0;whiteSpace=wrap;html=1;fillColor=#d5e8d4;strokeColor=#82b366;" vertex="1" parent="1">
          <mxGeometry x="3590" y="1590" width="50" height="30" as="geometry" />
        </mxCell>
        <mxCell id="m3YWzzSOtX_iTLKpykOy-42" value="2" style="rounded=0;whiteSpace=wrap;html=1;fillColor=#d5e8d4;strokeColor=#82b366;" vertex="1" parent="1">
          <mxGeometry x="3590" y="1620" width="50" height="30" as="geometry" />
        </mxCell>
        <mxCell id="m3YWzzSOtX_iTLKpykOy-43" value="3" style="rounded=0;whiteSpace=wrap;html=1;fillColor=#d5e8d4;strokeColor=#82b366;" vertex="1" parent="1">
          <mxGeometry x="3590" y="1650" width="50" height="30" as="geometry" />
        </mxCell>
        <mxCell id="m3YWzzSOtX_iTLKpykOy-44" value="4" style="rounded=0;whiteSpace=wrap;html=1;fillColor=#d5e8d4;strokeColor=#82b366;" vertex="1" parent="1">
          <mxGeometry x="3590" y="1680" width="50" height="30" as="geometry" />
        </mxCell>
        <mxCell id="m3YWzzSOtX_iTLKpykOy-45" value="序号" style="rounded=0;whiteSpace=wrap;html=1;fillColor=#d5e8d4;strokeColor=#82b366;gradientColor=#97d077;fontStyle=1" vertex="1" parent="1">
          <mxGeometry x="3590" y="1560" width="50" height="30" as="geometry" />
        </mxCell>
        <mxCell id="m3YWzzSOtX_iTLKpykOy-61" value="" style="rounded=0;whiteSpace=wrap;html=1;fillColor=#d5e8d4;strokeColor=#82b366;" vertex="1" parent="1">
          <mxGeometry x="4350" y="2000" width="140" height="50" as="geometry" />
        </mxCell>
        <mxCell id="m3YWzzSOtX_iTLKpykOy-62" value="" style="rounded=0;whiteSpace=wrap;html=1;fillColor=#d5e8d4;strokeColor=#82b366;" vertex="1" parent="1">
          <mxGeometry x="4350" y="2050" width="140" height="50" as="geometry" />
        </mxCell>
        <mxCell id="m3YWzzSOtX_iTLKpykOy-63" value="" style="rounded=0;whiteSpace=wrap;html=1;fillColor=#d5e8d4;strokeColor=#82b366;" vertex="1" parent="1">
          <mxGeometry x="4350" y="2100" width="140" height="50" as="geometry" />
        </mxCell>
        <mxCell id="m3YWzzSOtX_iTLKpykOy-64" value="" style="rounded=0;whiteSpace=wrap;html=1;fillColor=#d5e8d4;strokeColor=#82b366;" vertex="1" parent="1">
          <mxGeometry x="4350" y="2150" width="140" height="80" as="geometry" />
        </mxCell>
        <mxCell id="m3YWzzSOtX_iTLKpykOy-65" value="" style="rounded=0;whiteSpace=wrap;html=1;align=left;fillColor=#d5e8d4;strokeColor=#82b366;" vertex="1" parent="1">
          <mxGeometry x="4490" y="2000" width="340" height="50" as="geometry" />
        </mxCell>
        <mxCell id="m3YWzzSOtX_iTLKpykOy-66" value="" style="rounded=0;whiteSpace=wrap;html=1;align=left;fillColor=#d5e8d4;strokeColor=#82b366;" vertex="1" parent="1">
          <mxGeometry x="4490" y="2050" width="340" height="50" as="geometry" />
        </mxCell>
        <mxCell id="m3YWzzSOtX_iTLKpykOy-67" value="" style="rounded=0;whiteSpace=wrap;html=1;align=left;fillColor=#d5e8d4;strokeColor=#82b366;" vertex="1" parent="1">
          <mxGeometry x="4490" y="2100" width="340" height="50" as="geometry" />
        </mxCell>
        <mxCell id="m3YWzzSOtX_iTLKpykOy-68" value="" style="rounded=0;whiteSpace=wrap;html=1;align=left;fillColor=#d5e8d4;strokeColor=#82b366;" vertex="1" parent="1">
          <mxGeometry x="4490" y="2150" width="340" height="80" as="geometry" />
        </mxCell>
        <mxCell id="m3YWzzSOtX_iTLKpykOy-69" value="文件名" style="rounded=0;whiteSpace=wrap;html=1;fillColor=#d5e8d4;strokeColor=#82b366;gradientColor=#97d077;fontStyle=1" vertex="1" parent="1">
          <mxGeometry x="4350" y="1970" width="140" height="30" as="geometry" />
        </mxCell>
        <mxCell id="m3YWzzSOtX_iTLKpykOy-70" value="说明" style="rounded=0;whiteSpace=wrap;html=1;fillColor=#d5e8d4;strokeColor=#82b366;align=center;gradientColor=#97d077;fontStyle=1" vertex="1" parent="1">
          <mxGeometry x="4490" y="1970" width="340" height="30" as="geometry" />
        </mxCell>
        <mxCell id="m3YWzzSOtX_iTLKpykOy-71" value="1" style="rounded=0;whiteSpace=wrap;html=1;fillColor=#d5e8d4;strokeColor=#82b366;" vertex="1" parent="1">
          <mxGeometry x="4300" y="2000" width="50" height="50" as="geometry" />
        </mxCell>
        <mxCell id="m3YWzzSOtX_iTLKpykOy-72" value="2" style="rounded=0;whiteSpace=wrap;html=1;fillColor=#d5e8d4;strokeColor=#82b366;" vertex="1" parent="1">
          <mxGeometry x="4300" y="2050" width="50" height="50" as="geometry" />
        </mxCell>
        <mxCell id="m3YWzzSOtX_iTLKpykOy-73" value="3" style="rounded=0;whiteSpace=wrap;html=1;fillColor=#d5e8d4;strokeColor=#82b366;" vertex="1" parent="1">
          <mxGeometry x="4300" y="2100" width="50" height="50" as="geometry" />
        </mxCell>
        <mxCell id="m3YWzzSOtX_iTLKpykOy-74" value="4" style="rounded=0;whiteSpace=wrap;html=1;fillColor=#d5e8d4;strokeColor=#82b366;" vertex="1" parent="1">
          <mxGeometry x="4300" y="2150" width="50" height="80" as="geometry" />
        </mxCell>
        <mxCell id="m3YWzzSOtX_iTLKpykOy-75" value="序号" style="rounded=0;whiteSpace=wrap;html=1;fillColor=#d5e8d4;strokeColor=#82b366;gradientColor=#97d077;fontStyle=1" vertex="1" parent="1">
          <mxGeometry x="4300" y="1970" width="50" height="30" as="geometry" />
        </mxCell>
        <mxCell id="m3YWzzSOtX_iTLKpykOy-76" value="" style="rounded=0;whiteSpace=wrap;html=1;fillColor=#d5e8d4;strokeColor=#82b366;" vertex="1" parent="1">
          <mxGeometry x="3080" y="2160" width="140" height="50" as="geometry" />
        </mxCell>
        <mxCell id="m3YWzzSOtX_iTLKpykOy-77" value="" style="rounded=0;whiteSpace=wrap;html=1;fillColor=#d5e8d4;strokeColor=#82b366;" vertex="1" parent="1">
          <mxGeometry x="3080" y="2210" width="140" height="50" as="geometry" />
        </mxCell>
        <mxCell id="m3YWzzSOtX_iTLKpykOy-78" value="" style="rounded=0;whiteSpace=wrap;html=1;fillColor=#d5e8d4;strokeColor=#82b366;" vertex="1" parent="1">
          <mxGeometry x="3080" y="2260" width="140" height="50" as="geometry" />
        </mxCell>
        <mxCell id="m3YWzzSOtX_iTLKpykOy-79" value="" style="rounded=0;whiteSpace=wrap;html=1;fillColor=#d5e8d4;strokeColor=#82b366;" vertex="1" parent="1">
          <mxGeometry x="3080" y="2310" width="140" height="80" as="geometry" />
        </mxCell>
        <mxCell id="m3YWzzSOtX_iTLKpykOy-80" value="" style="rounded=0;whiteSpace=wrap;html=1;align=left;fillColor=#d5e8d4;strokeColor=#82b366;" vertex="1" parent="1">
          <mxGeometry x="3220" y="2160" width="340" height="50" as="geometry" />
        </mxCell>
        <mxCell id="m3YWzzSOtX_iTLKpykOy-81" value="" style="rounded=0;whiteSpace=wrap;html=1;align=left;fillColor=#d5e8d4;strokeColor=#82b366;" vertex="1" parent="1">
          <mxGeometry x="3220" y="2210" width="340" height="50" as="geometry" />
        </mxCell>
        <mxCell id="m3YWzzSOtX_iTLKpykOy-82" value="" style="rounded=0;whiteSpace=wrap;html=1;align=left;fillColor=#d5e8d4;strokeColor=#82b366;" vertex="1" parent="1">
          <mxGeometry x="3220" y="2260" width="340" height="50" as="geometry" />
        </mxCell>
        <mxCell id="m3YWzzSOtX_iTLKpykOy-83" value="" style="rounded=0;whiteSpace=wrap;html=1;align=left;fillColor=#d5e8d4;strokeColor=#82b366;" vertex="1" parent="1">
          <mxGeometry x="3220" y="2310" width="340" height="80" as="geometry" />
        </mxCell>
        <mxCell id="m3YWzzSOtX_iTLKpykOy-84" value="文件名" style="rounded=0;whiteSpace=wrap;html=1;fillColor=#d5e8d4;strokeColor=#82b366;gradientColor=#97d077;fontStyle=1" vertex="1" parent="1">
          <mxGeometry x="3080" y="2130" width="140" height="30" as="geometry" />
        </mxCell>
        <mxCell id="m3YWzzSOtX_iTLKpykOy-85" value="说明" style="rounded=0;whiteSpace=wrap;html=1;fillColor=#d5e8d4;strokeColor=#82b366;align=center;gradientColor=#97d077;fontStyle=1" vertex="1" parent="1">
          <mxGeometry x="3220" y="2130" width="340" height="30" as="geometry" />
        </mxCell>
        <mxCell id="m3YWzzSOtX_iTLKpykOy-86" value="1" style="rounded=0;whiteSpace=wrap;html=1;fillColor=#d5e8d4;strokeColor=#82b366;" vertex="1" parent="1">
          <mxGeometry x="3030" y="2160" width="50" height="50" as="geometry" />
        </mxCell>
        <mxCell id="m3YWzzSOtX_iTLKpykOy-87" value="2" style="rounded=0;whiteSpace=wrap;html=1;fillColor=#d5e8d4;strokeColor=#82b366;" vertex="1" parent="1">
          <mxGeometry x="3030" y="2210" width="50" height="50" as="geometry" />
        </mxCell>
        <mxCell id="m3YWzzSOtX_iTLKpykOy-88" value="3" style="rounded=0;whiteSpace=wrap;html=1;fillColor=#d5e8d4;strokeColor=#82b366;" vertex="1" parent="1">
          <mxGeometry x="3030" y="2260" width="50" height="50" as="geometry" />
        </mxCell>
        <mxCell id="m3YWzzSOtX_iTLKpykOy-89" value="4" style="rounded=0;whiteSpace=wrap;html=1;fillColor=#d5e8d4;strokeColor=#82b366;" vertex="1" parent="1">
          <mxGeometry x="3030" y="2310" width="50" height="80" as="geometry" />
        </mxCell>
        <mxCell id="m3YWzzSOtX_iTLKpykOy-90" value="序号" style="rounded=0;whiteSpace=wrap;html=1;fillColor=#d5e8d4;strokeColor=#82b366;gradientColor=#97d077;fontStyle=1" vertex="1" parent="1">
          <mxGeometry x="3030" y="2130" width="50" height="30" as="geometry" />
        </mxCell>
        <mxCell id="m3YWzzSOtX_iTLKpykOy-91" value="" style="rounded=0;whiteSpace=wrap;html=1;fillColor=#d5e8d4;strokeColor=#82b366;" vertex="1" parent="1">
          <mxGeometry x="2780" y="1670" width="140" height="50" as="geometry" />
        </mxCell>
        <mxCell id="m3YWzzSOtX_iTLKpykOy-92" value="" style="rounded=0;whiteSpace=wrap;html=1;fillColor=#d5e8d4;strokeColor=#82b366;" vertex="1" parent="1">
          <mxGeometry x="2780" y="1720" width="140" height="50" as="geometry" />
        </mxCell>
        <mxCell id="m3YWzzSOtX_iTLKpykOy-93" value="" style="rounded=0;whiteSpace=wrap;html=1;fillColor=#d5e8d4;strokeColor=#82b366;" vertex="1" parent="1">
          <mxGeometry x="2780" y="1770" width="140" height="50" as="geometry" />
        </mxCell>
        <mxCell id="m3YWzzSOtX_iTLKpykOy-94" value="" style="rounded=0;whiteSpace=wrap;html=1;fillColor=#d5e8d4;strokeColor=#82b366;" vertex="1" parent="1">
          <mxGeometry x="2780" y="1820" width="140" height="80" as="geometry" />
        </mxCell>
        <mxCell id="m3YWzzSOtX_iTLKpykOy-95" value="" style="rounded=0;whiteSpace=wrap;html=1;align=left;fillColor=#d5e8d4;strokeColor=#82b366;" vertex="1" parent="1">
          <mxGeometry x="2920" y="1670" width="340" height="50" as="geometry" />
        </mxCell>
        <mxCell id="m3YWzzSOtX_iTLKpykOy-96" value="" style="rounded=0;whiteSpace=wrap;html=1;align=left;fillColor=#d5e8d4;strokeColor=#82b366;" vertex="1" parent="1">
          <mxGeometry x="2920" y="1720" width="340" height="50" as="geometry" />
        </mxCell>
        <mxCell id="m3YWzzSOtX_iTLKpykOy-97" value="" style="rounded=0;whiteSpace=wrap;html=1;align=left;fillColor=#d5e8d4;strokeColor=#82b366;" vertex="1" parent="1">
          <mxGeometry x="2920" y="1770" width="340" height="50" as="geometry" />
        </mxCell>
        <mxCell id="m3YWzzSOtX_iTLKpykOy-98" value="" style="rounded=0;whiteSpace=wrap;html=1;align=left;fillColor=#d5e8d4;strokeColor=#82b366;" vertex="1" parent="1">
          <mxGeometry x="2920" y="1820" width="340" height="80" as="geometry" />
        </mxCell>
        <mxCell id="m3YWzzSOtX_iTLKpykOy-99" value="文件名" style="rounded=0;whiteSpace=wrap;html=1;fillColor=#d5e8d4;strokeColor=#82b366;gradientColor=#97d077;fontStyle=1" vertex="1" parent="1">
          <mxGeometry x="2780" y="1640" width="140" height="30" as="geometry" />
        </mxCell>
        <mxCell id="m3YWzzSOtX_iTLKpykOy-100" value="说明" style="rounded=0;whiteSpace=wrap;html=1;fillColor=#d5e8d4;strokeColor=#82b366;align=center;gradientColor=#97d077;fontStyle=1" vertex="1" parent="1">
          <mxGeometry x="2920" y="1640" width="340" height="30" as="geometry" />
        </mxCell>
        <mxCell id="m3YWzzSOtX_iTLKpykOy-101" value="1" style="rounded=0;whiteSpace=wrap;html=1;fillColor=#d5e8d4;strokeColor=#82b366;" vertex="1" parent="1">
          <mxGeometry x="2730" y="1670" width="50" height="50" as="geometry" />
        </mxCell>
        <mxCell id="m3YWzzSOtX_iTLKpykOy-102" value="2" style="rounded=0;whiteSpace=wrap;html=1;fillColor=#d5e8d4;strokeColor=#82b366;" vertex="1" parent="1">
          <mxGeometry x="2730" y="1720" width="50" height="50" as="geometry" />
        </mxCell>
        <mxCell id="m3YWzzSOtX_iTLKpykOy-103" value="3" style="rounded=0;whiteSpace=wrap;html=1;fillColor=#d5e8d4;strokeColor=#82b366;" vertex="1" parent="1">
          <mxGeometry x="2730" y="1770" width="50" height="50" as="geometry" />
        </mxCell>
        <mxCell id="m3YWzzSOtX_iTLKpykOy-104" value="4" style="rounded=0;whiteSpace=wrap;html=1;fillColor=#d5e8d4;strokeColor=#82b366;" vertex="1" parent="1">
          <mxGeometry x="2730" y="1820" width="50" height="80" as="geometry" />
        </mxCell>
        <mxCell id="m3YWzzSOtX_iTLKpykOy-105" value="序号" style="rounded=0;whiteSpace=wrap;html=1;fillColor=#d5e8d4;strokeColor=#82b366;gradientColor=#97d077;fontStyle=1" vertex="1" parent="1">
          <mxGeometry x="2730" y="1640" width="50" height="30" as="geometry" />
        </mxCell>
        <mxCell id="m3YWzzSOtX_iTLKpykOy-106" value="大多数平台" style="rounded=0;whiteSpace=wrap;html=1;fillColor=#d5e8d4;strokeColor=#82b366;" vertex="1" parent="1">
          <mxGeometry x="3560" y="1160" width="140" height="40" as="geometry" />
        </mxCell>
        <mxCell id="m3YWzzSOtX_iTLKpykOy-110" value="适用的平台/系统" style="rounded=0;whiteSpace=wrap;html=1;fillColor=#d5e8d4;strokeColor=#82b366;gradientColor=#97d077;fontStyle=1" vertex="1" parent="1">
          <mxGeometry x="3560" y="1130" width="140" height="30" as="geometry" />
        </mxCell>
        <mxCell id="m3YWzzSOtX_iTLKpykOy-111" value="poll.c" style="rounded=0;whiteSpace=wrap;html=1;fillColor=#d5e8d4;strokeColor=#82b366;" vertex="1" parent="1">
          <mxGeometry x="3420" y="1200" width="140" height="40" as="geometry" />
        </mxCell>
        <mxCell id="m3YWzzSOtX_iTLKpykOy-112" value="&amp;nbsp;poll 后端" style="rounded=0;whiteSpace=wrap;html=1;align=left;fillColor=#d5e8d4;strokeColor=#82b366;" vertex="1" parent="1">
          <mxGeometry x="3700" y="1200" width="220" height="40" as="geometry" />
        </mxCell>
        <mxCell id="m3YWzzSOtX_iTLKpykOy-113" value="2" style="rounded=0;whiteSpace=wrap;html=1;fillColor=#d5e8d4;strokeColor=#82b366;" vertex="1" parent="1">
          <mxGeometry x="3370" y="1200" width="50" height="40" as="geometry" />
        </mxCell>
        <mxCell id="m3YWzzSOtX_iTLKpykOy-114" value="大多数 Unix" style="rounded=0;whiteSpace=wrap;html=1;fillColor=#d5e8d4;strokeColor=#82b366;" vertex="1" parent="1">
          <mxGeometry x="3560" y="1200" width="140" height="40" as="geometry" />
        </mxCell>
        <mxCell id="m3YWzzSOtX_iTLKpykOy-115" value="epoll.c" style="rounded=0;whiteSpace=wrap;html=1;fillColor=#d5e8d4;strokeColor=#82b366;" vertex="1" parent="1">
          <mxGeometry x="3420" y="1240" width="140" height="40" as="geometry" />
        </mxCell>
        <mxCell id="m3YWzzSOtX_iTLKpykOy-116" value="&amp;nbsp;epoll 后端" style="rounded=0;whiteSpace=wrap;html=1;align=left;fillColor=#d5e8d4;strokeColor=#82b366;" vertex="1" parent="1">
          <mxGeometry x="3700" y="1240" width="220" height="40" as="geometry" />
        </mxCell>
        <mxCell id="m3YWzzSOtX_iTLKpykOy-117" value="3" style="rounded=0;whiteSpace=wrap;html=1;fillColor=#d5e8d4;strokeColor=#82b366;" vertex="1" parent="1">
          <mxGeometry x="3370" y="1240" width="50" height="40" as="geometry" />
        </mxCell>
        <mxCell id="m3YWzzSOtX_iTLKpykOy-118" value="Linux" style="rounded=0;whiteSpace=wrap;html=1;fillColor=#d5e8d4;strokeColor=#82b366;" vertex="1" parent="1">
          <mxGeometry x="3560" y="1240" width="140" height="40" as="geometry" />
        </mxCell>
        <mxCell id="m3YWzzSOtX_iTLKpykOy-123" value="epoll_sub.c" style="rounded=0;whiteSpace=wrap;html=1;fillColor=#d5e8d4;strokeColor=#82b366;" vertex="1" parent="1">
          <mxGeometry x="3420" y="1280" width="140" height="40" as="geometry" />
        </mxCell>
        <mxCell id="m3YWzzSOtX_iTLKpykOy-124" value="&amp;nbsp;epoll 子实现 (边缘触发、复杂场景)" style="rounded=0;whiteSpace=wrap;html=1;align=left;fillColor=#d5e8d4;strokeColor=#82b366;" vertex="1" parent="1">
          <mxGeometry x="3700" y="1280" width="220" height="40" as="geometry" />
        </mxCell>
        <mxCell id="m3YWzzSOtX_iTLKpykOy-125" value="4" style="rounded=0;whiteSpace=wrap;html=1;fillColor=#d5e8d4;strokeColor=#82b366;" vertex="1" parent="1">
          <mxGeometry x="3370" y="1280" width="50" height="40" as="geometry" />
        </mxCell>
        <mxCell id="m3YWzzSOtX_iTLKpykOy-126" value="Linux" style="rounded=0;whiteSpace=wrap;html=1;fillColor=#d5e8d4;strokeColor=#82b366;" vertex="1" parent="1">
          <mxGeometry x="3560" y="1280" width="140" height="40" as="geometry" />
        </mxCell>
        <mxCell id="m3YWzzSOtX_iTLKpykOy-127" value="kqueue.c" style="rounded=0;whiteSpace=wrap;html=1;fillColor=#d5e8d4;strokeColor=#82b366;" vertex="1" parent="1">
          <mxGeometry x="3420" y="1320" width="140" height="40" as="geometry" />
        </mxCell>
        <mxCell id="m3YWzzSOtX_iTLKpykOy-128" value="&amp;nbsp;kqueue 后端" style="rounded=0;whiteSpace=wrap;html=1;align=left;fillColor=#d5e8d4;strokeColor=#82b366;" vertex="1" parent="1">
          <mxGeometry x="3700" y="1320" width="220" height="40" as="geometry" />
        </mxCell>
        <mxCell id="m3YWzzSOtX_iTLKpykOy-129" value="5" style="rounded=0;whiteSpace=wrap;html=1;fillColor=#d5e8d4;strokeColor=#82b366;" vertex="1" parent="1">
          <mxGeometry x="3370" y="1320" width="50" height="40" as="geometry" />
        </mxCell>
        <mxCell id="m3YWzzSOtX_iTLKpykOy-130" value="BSD/macOS" style="rounded=0;whiteSpace=wrap;html=1;fillColor=#d5e8d4;strokeColor=#82b366;" vertex="1" parent="1">
          <mxGeometry x="3560" y="1320" width="140" height="40" as="geometry" />
        </mxCell>
        <mxCell id="m3YWzzSOtX_iTLKpykOy-131" value="devpoll.c" style="rounded=0;whiteSpace=wrap;html=1;fillColor=#d5e8d4;strokeColor=#82b366;" vertex="1" parent="1">
          <mxGeometry x="3420" y="1360" width="140" height="40" as="geometry" />
        </mxCell>
        <mxCell id="m3YWzzSOtX_iTLKpykOy-132" value="&amp;nbsp;/dev/poll 后端" style="rounded=0;whiteSpace=wrap;html=1;align=left;fillColor=#d5e8d4;strokeColor=#82b366;" vertex="1" parent="1">
          <mxGeometry x="3700" y="1360" width="220" height="40" as="geometry" />
        </mxCell>
        <mxCell id="m3YWzzSOtX_iTLKpykOy-133" value="6" style="rounded=0;whiteSpace=wrap;html=1;fillColor=#d5e8d4;strokeColor=#82b366;" vertex="1" parent="1">
          <mxGeometry x="3370" y="1360" width="50" height="40" as="geometry" />
        </mxCell>
        <mxCell id="m3YWzzSOtX_iTLKpykOy-134" value="Solaris" style="rounded=0;whiteSpace=wrap;html=1;fillColor=#d5e8d4;strokeColor=#82b366;" vertex="1" parent="1">
          <mxGeometry x="3560" y="1360" width="140" height="40" as="geometry" />
        </mxCell>
        <mxCell id="m3YWzzSOtX_iTLKpykOy-135" value="win32select.c" style="rounded=0;whiteSpace=wrap;html=1;fillColor=#d5e8d4;strokeColor=#82b366;" vertex="1" parent="1">
          <mxGeometry x="3420" y="1440" width="140" height="40" as="geometry" />
        </mxCell>
        <mxCell id="m3YWzzSOtX_iTLKpykOy-136" value="&amp;nbsp;Windows select" style="rounded=0;whiteSpace=wrap;html=1;align=left;fillColor=#d5e8d4;strokeColor=#82b366;" vertex="1" parent="1">
          <mxGeometry x="3700" y="1440" width="220" height="40" as="geometry" />
        </mxCell>
        <mxCell id="m3YWzzSOtX_iTLKpykOy-137" value="8" style="rounded=0;whiteSpace=wrap;html=1;fillColor=#d5e8d4;strokeColor=#82b366;" vertex="1" parent="1">
          <mxGeometry x="3370" y="1440" width="50" height="40" as="geometry" />
        </mxCell>
        <mxCell id="m3YWzzSOtX_iTLKpykOy-138" value="Windows" style="rounded=0;whiteSpace=wrap;html=1;fillColor=#d5e8d4;strokeColor=#82b366;" vertex="1" parent="1">
          <mxGeometry x="3560" y="1440" width="140" height="40" as="geometry" />
        </mxCell>
        <mxCell id="m3YWzzSOtX_iTLKpykOy-139" value="evport.c" style="rounded=0;whiteSpace=wrap;html=1;fillColor=#d5e8d4;strokeColor=#82b366;" vertex="1" parent="1">
          <mxGeometry x="3420" y="1400" width="140" height="40" as="geometry" />
        </mxCell>
        <mxCell id="m3YWzzSOtX_iTLKpykOy-140" value="&amp;nbsp;使用 Solaris 10 事件端口（event ports）&lt;div&gt;&amp;nbsp;的事件后端实现&lt;/div&gt;" style="rounded=0;whiteSpace=wrap;html=1;align=left;fillColor=#d5e8d4;strokeColor=#82b366;" vertex="1" parent="1">
          <mxGeometry x="3700" y="1400" width="220" height="40" as="geometry" />
        </mxCell>
        <mxCell id="m3YWzzSOtX_iTLKpykOy-141" value="7" style="rounded=0;whiteSpace=wrap;html=1;fillColor=#d5e8d4;strokeColor=#82b366;" vertex="1" parent="1">
          <mxGeometry x="3370" y="1400" width="50" height="40" as="geometry" />
        </mxCell>
        <mxCell id="m3YWzzSOtX_iTLKpykOy-142" value="Solaris 10+" style="rounded=0;whiteSpace=wrap;html=1;fillColor=#d5e8d4;strokeColor=#82b366;" vertex="1" parent="1">
          <mxGeometry x="3560" y="1400" width="140" height="40" as="geometry" />
        </mxCell>
        <mxCell id="m3YWzzSOtX_iTLKpykOy-143" value="" style="rounded=0;whiteSpace=wrap;html=1;fillColor=#d5e8d4;strokeColor=#82b366;" vertex="1" parent="1">
          <mxGeometry x="3640" y="1710" width="140" height="30" as="geometry" />
        </mxCell>
        <mxCell id="m3YWzzSOtX_iTLKpykOy-144" value="" style="rounded=0;whiteSpace=wrap;html=1;fillColor=#d5e8d4;strokeColor=#82b366;" vertex="1" parent="1">
          <mxGeometry x="3640" y="1740" width="140" height="30" as="geometry" />
        </mxCell>
        <mxCell id="m3YWzzSOtX_iTLKpykOy-145" value="" style="rounded=0;whiteSpace=wrap;html=1;fillColor=#d5e8d4;strokeColor=#82b366;" vertex="1" parent="1">
          <mxGeometry x="3640" y="1770" width="140" height="30" as="geometry" />
        </mxCell>
        <mxCell id="m3YWzzSOtX_iTLKpykOy-146" value="" style="rounded=0;whiteSpace=wrap;html=1;fillColor=#d5e8d4;strokeColor=#82b366;" vertex="1" parent="1">
          <mxGeometry x="3640" y="1800" width="140" height="30" as="geometry" />
        </mxCell>
        <mxCell id="m3YWzzSOtX_iTLKpykOy-147" value="" style="rounded=0;whiteSpace=wrap;html=1;align=left;fillColor=#d5e8d4;strokeColor=#82b366;" vertex="1" parent="1">
          <mxGeometry x="3780" y="1710" width="340" height="30" as="geometry" />
        </mxCell>
        <mxCell id="m3YWzzSOtX_iTLKpykOy-148" value="" style="rounded=0;whiteSpace=wrap;html=1;align=left;fillColor=#d5e8d4;strokeColor=#82b366;" vertex="1" parent="1">
          <mxGeometry x="3780" y="1740" width="340" height="30" as="geometry" />
        </mxCell>
        <mxCell id="m3YWzzSOtX_iTLKpykOy-149" value="" style="rounded=0;whiteSpace=wrap;html=1;align=left;fillColor=#d5e8d4;strokeColor=#82b366;" vertex="1" parent="1">
          <mxGeometry x="3780" y="1770" width="340" height="30" as="geometry" />
        </mxCell>
        <mxCell id="m3YWzzSOtX_iTLKpykOy-150" value="" style="rounded=0;whiteSpace=wrap;html=1;align=left;fillColor=#d5e8d4;strokeColor=#82b366;" vertex="1" parent="1">
          <mxGeometry x="3780" y="1800" width="340" height="30" as="geometry" />
        </mxCell>
        <mxCell id="m3YWzzSOtX_iTLKpykOy-151" value="5" style="rounded=0;whiteSpace=wrap;html=1;fillColor=#d5e8d4;strokeColor=#82b366;" vertex="1" parent="1">
          <mxGeometry x="3590" y="1710" width="50" height="30" as="geometry" />
        </mxCell>
        <mxCell id="m3YWzzSOtX_iTLKpykOy-152" value="6" style="rounded=0;whiteSpace=wrap;html=1;fillColor=#d5e8d4;strokeColor=#82b366;" vertex="1" parent="1">
          <mxGeometry x="3590" y="1740" width="50" height="30" as="geometry" />
        </mxCell>
        <mxCell id="m3YWzzSOtX_iTLKpykOy-153" value="7" style="rounded=0;whiteSpace=wrap;html=1;fillColor=#d5e8d4;strokeColor=#82b366;" vertex="1" parent="1">
          <mxGeometry x="3590" y="1770" width="50" height="30" as="geometry" />
        </mxCell>
        <mxCell id="m3YWzzSOtX_iTLKpykOy-154" value="8" style="rounded=0;whiteSpace=wrap;html=1;fillColor=#d5e8d4;strokeColor=#82b366;" vertex="1" parent="1">
          <mxGeometry x="3590" y="1800" width="50" height="30" as="geometry" />
        </mxCell>
        <mxCell id="m3YWzzSOtX_iTLKpykOy-157" value="" style="rounded=0;whiteSpace=wrap;html=1;fillColor=#d5e8d4;strokeColor=#82b366;" vertex="1" parent="1">
          <mxGeometry x="3640" y="1830" width="140" height="30" as="geometry" />
        </mxCell>
        <mxCell id="m3YWzzSOtX_iTLKpykOy-158" value="" style="rounded=0;whiteSpace=wrap;html=1;align=left;fillColor=#d5e8d4;strokeColor=#82b366;" vertex="1" parent="1">
          <mxGeometry x="3780" y="1830" width="340" height="30" as="geometry" />
        </mxCell>
        <mxCell id="m3YWzzSOtX_iTLKpykOy-159" value="9" style="rounded=0;whiteSpace=wrap;html=1;fillColor=#d5e8d4;strokeColor=#82b366;" vertex="1" parent="1">
          <mxGeometry x="3590" y="1830" width="50" height="30" as="geometry" />
        </mxCell>
      </root>
    </mxGraphModel>
  </diagram>
</mxfile>
